<svg width="145" height="50" viewBox="0 0 145 50" fill="none" xmlns="http://www.w3.org/2000/svg">
<path d="M1.77575 16.9388L9.25933 20.5557V16.9388H12.4938V43.7281L19.9139 46.3641V9.76638H1.77575V16.9388Z" fill="#E57820"/>
<path d="M24.2898 47.958V9.76638H31.5197V47.958L27.9682 49.3066L24.2898 47.958Z" fill="#E57820"/>
<path d="M46.6138 20.5557L54.0974 16.9388V9.76638H35.9592V46.3641L43.3794 43.7281V16.9388H46.6138V20.5557Z" fill="#E57820"/>
<path d="M1.83918 6.63997L0 0.693604H56L54.1608 6.63997H1.83918Z" fill="#E57820"/>
<path d="M75.5979 26.9187H72V10.3806H79.835C80.5924 10.3806 81.2789 10.507 81.8943 10.7597C82.5097 11.0124 83.0305 11.3757 83.4566 11.8496C83.8984 12.3077 84.2377 12.8605 84.4744 13.5082C84.7111 14.1558 84.8295 14.8745 84.8295 15.6643C84.8295 16.7858 84.577 17.7651 84.072 18.6023C83.5828 19.4394 82.8332 20.0476 81.8233 20.4267L85.0662 26.9187H81.0658L78.178 20.8532H75.5979V26.9187ZM79.3852 17.8204C79.9218 17.8204 80.3399 17.6861 80.6398 17.4176C80.9554 17.1333 81.1132 16.7226 81.1132 16.1855V15.143C81.1132 14.606 80.9554 14.2032 80.6398 13.9346C80.3399 13.6503 79.9218 13.5082 79.3852 13.5082H75.5979V17.8204H79.3852Z" fill="#E57820"/>
<path d="M94.625 24.8337H94.5067C94.3962 25.1496 94.2463 25.4497 94.0569 25.734C93.8833 26.0183 93.6545 26.2711 93.3705 26.4922C93.0864 26.7133 92.7471 26.8871 92.3526 27.0135C91.9739 27.1398 91.5321 27.203 91.0271 27.203C89.7489 27.203 88.7784 26.7844 88.1156 25.9473C87.4686 25.0943 87.1451 23.878 87.1451 22.2985V14.4796H90.6484V21.9904C90.6484 22.7486 90.7825 23.3331 91.0508 23.7438C91.319 24.1544 91.7767 24.3598 92.4237 24.3598C92.6919 24.3598 92.9602 24.3203 93.2285 24.2413C93.4967 24.1623 93.7334 24.0518 93.9386 23.9096C94.1437 23.7517 94.3094 23.5621 94.4356 23.341C94.5619 23.1198 94.625 22.8592 94.625 22.5591V14.4796H98.1283V26.9187H94.625V24.8337Z" fill="#E57820"/>
<path d="M100.914 26.9187V14.4796H104.418V16.5883H104.56C104.781 15.9249 105.159 15.3642 105.696 14.9061C106.232 14.4322 106.966 14.1953 107.897 14.1953C108.749 14.1953 109.475 14.4085 110.075 14.835C110.675 15.2615 111.108 15.8854 111.377 16.7068H111.448C111.558 16.3593 111.724 16.0355 111.945 15.7354C112.182 15.4194 112.466 15.1509 112.797 14.9298C113.128 14.7086 113.499 14.5349 113.91 14.4085C114.32 14.2664 114.762 14.1953 115.235 14.1953C116.434 14.1953 117.35 14.6218 117.981 15.4747C118.628 16.3277 118.951 17.544 118.951 19.1235V26.9187H115.448V19.4078C115.448 17.8283 114.88 17.0385 113.744 17.0385C113.223 17.0385 112.75 17.1886 112.324 17.4887C111.898 17.7888 111.684 18.2469 111.684 18.8629V26.9187H108.181V19.4078C108.181 17.8283 107.613 17.0385 106.477 17.0385C106.224 17.0385 105.972 17.078 105.719 17.157C105.483 17.2201 105.262 17.3307 105.057 17.4887C104.867 17.6466 104.71 17.8441 104.583 18.081C104.473 18.3021 104.418 18.5628 104.418 18.8629V26.9187H100.914Z" fill="#E57820"/>
<path d="M126.61 27.203C125.679 27.203 124.851 27.053 124.125 26.7528C123.399 26.4369 122.791 26.0025 122.302 25.4497C121.813 24.881 121.442 24.1939 121.19 23.3884C120.937 22.5828 120.811 21.6824 120.811 20.6873C120.811 19.6922 120.937 18.7997 121.19 18.0099C121.442 17.2043 121.813 16.5172 122.302 15.9486C122.791 15.3799 123.399 14.9456 124.125 14.6454C124.851 14.3453 125.679 14.1953 126.61 14.1953C127.873 14.1953 128.922 14.4796 129.758 15.0482C130.61 15.6169 131.218 16.4146 131.581 17.4413L128.74 18.6733C128.63 18.1995 128.401 17.7967 128.054 17.465C127.707 17.1333 127.226 16.9674 126.61 16.9674C125.9 16.9674 125.363 17.2043 125 17.6782C124.638 18.1363 124.456 18.7602 124.456 19.55V21.872C124.456 22.6618 124.638 23.2857 125 23.7438C125.363 24.2018 125.9 24.4309 126.61 24.4309C127.241 24.4309 127.738 24.265 128.101 23.9333C128.48 23.5858 128.756 23.1356 128.93 22.5828L131.652 23.7675C131.242 24.9521 130.603 25.8209 129.735 26.3737C128.882 26.9266 127.841 27.203 126.61 27.203Z" fill="#E57820"/>
<path d="M138.273 27.203C137.358 27.203 136.537 27.053 135.811 26.7528C135.101 26.4527 134.494 26.0183 133.989 25.4497C133.499 24.881 133.121 24.1939 132.852 23.3884C132.584 22.5828 132.45 21.6824 132.45 20.6873C132.45 19.6922 132.584 18.7918 132.852 17.9862C133.121 17.1807 133.499 16.5014 133.989 15.9486C134.494 15.3799 135.101 14.9456 135.811 14.6454C136.537 14.3453 137.358 14.1953 138.273 14.1953C139.188 14.1953 140.001 14.3453 140.711 14.6454C141.437 14.9456 142.045 15.3799 142.534 15.9486C143.039 16.5014 143.425 17.1807 143.694 17.9862C143.962 18.7918 144.096 19.6922 144.096 20.6873C144.096 21.6824 143.962 22.5828 143.694 23.3884C143.425 24.1939 143.039 24.881 142.534 25.4497C142.045 26.0183 141.437 26.4527 140.711 26.7528C140.001 27.053 139.188 27.203 138.273 27.203ZM138.273 24.4309C138.967 24.4309 139.504 24.2176 139.883 23.7911C140.261 23.3647 140.451 22.7565 140.451 21.9667V19.4315C140.451 18.6418 140.261 18.0336 139.883 17.6071C139.504 17.1807 138.967 16.9674 138.273 16.9674C137.579 16.9674 137.042 17.1807 136.663 17.6071C136.285 18.0336 136.095 18.6418 136.095 19.4315V21.9667C136.095 22.7565 136.285 23.3647 136.663 23.7911C137.042 24.2176 137.579 24.4309 138.273 24.4309Z" fill="#E57820"/>
<path d="M75.4316 39.6197C74.9378 39.6197 74.4905 39.5424 74.0897 39.3878C73.696 39.2261 73.3561 38.9872 73.0698 38.671C72.7907 38.3548 72.5759 37.9648 72.4256 37.501C72.2753 37.0302 72.2002 36.4857 72.2002 35.8673C72.2002 35.2489 72.2753 34.7008 72.4256 34.223C72.5759 33.7381 72.7907 33.3341 73.0698 33.0109C73.3561 32.6806 73.696 32.4311 74.0897 32.2625C74.4905 32.0938 74.9378 32.0095 75.4316 32.0095C76.1044 32.0095 76.6626 32.1501 77.1064 32.4311C77.5501 32.7122 77.9044 33.1373 78.1692 33.7065L76.9561 34.3389C76.8487 34.0087 76.6734 33.7452 76.43 33.5484C76.1867 33.3446 75.8539 33.2427 75.4316 33.2427C74.902 33.2427 74.4797 33.4184 74.1648 33.7698C73.8571 34.1211 73.7032 34.613 73.7032 35.2454V36.4048C73.7032 37.0443 73.8571 37.5362 74.1648 37.8805C74.4797 38.2178 74.902 38.3864 75.4316 38.3864C75.8539 38.3864 76.1974 38.274 76.4622 38.0491C76.7342 37.8243 76.931 37.5467 77.0527 37.2165L78.2014 37.8805C77.9294 38.4286 77.568 38.8572 77.1171 39.1664C76.6662 39.4686 76.1044 39.6197 75.4316 39.6197Z" fill="#E57820"/>
<path d="M81.7614 39.6197C81.3606 39.6197 80.9991 39.5529 80.6771 39.4194C80.3622 39.2859 80.0902 39.0926 79.8612 38.8397C79.6393 38.5867 79.4675 38.2845 79.3458 37.9332C79.2242 37.5748 79.1633 37.1743 79.1633 36.7316C79.1633 36.2889 79.2242 35.8919 79.3458 35.5405C79.4675 35.1892 79.6393 34.8906 79.8612 34.6446C80.0902 34.3916 80.3622 34.1984 80.6771 34.0649C80.9991 33.9314 81.3606 33.8646 81.7614 33.8646C82.1622 33.8646 82.5236 33.9314 82.8457 34.0649C83.1677 34.1984 83.4397 34.3916 83.6616 34.6446C83.8906 34.8906 84.0659 35.1892 84.1876 35.5405C84.3093 35.8919 84.3701 36.2889 84.3701 36.7316C84.3701 37.1743 84.3093 37.5748 84.1876 37.9332C84.0659 38.2845 83.8906 38.5867 83.6616 38.8397C83.4397 39.0926 83.1677 39.2859 82.8457 39.4194C82.5236 39.5529 82.1622 39.6197 81.7614 39.6197ZM81.7614 38.534C82.1264 38.534 82.4127 38.4251 82.6202 38.2072C82.8278 37.9894 82.9315 37.6697 82.9315 37.2481V36.2257C82.9315 35.8111 82.8278 35.4949 82.6202 35.277C82.4127 35.0592 82.1264 34.9503 81.7614 34.9503C81.4035 34.9503 81.1208 35.0592 80.9132 35.277C80.7057 35.4949 80.6019 35.8111 80.6019 36.2257V37.2481C80.6019 37.6697 80.7057 37.9894 80.9132 38.2072C81.1208 38.4251 81.4035 38.534 81.7614 38.534Z" fill="#E57820"/>
<path d="M85.8031 39.4932V33.9911H87.1772V34.9081H87.2309C87.3454 34.613 87.5244 34.367 87.7677 34.1703C88.0182 33.9665 88.3617 33.8646 88.7983 33.8646C89.378 33.8646 89.8218 34.0508 90.1295 34.4233C90.4373 34.7957 90.5912 35.3262 90.5912 36.0149V39.4932H89.217V36.1519C89.217 35.7584 89.1454 35.4632 89.0023 35.2665C88.8591 35.0697 88.623 34.9714 88.2937 34.9714C88.1506 34.9714 88.011 34.9924 87.875 35.0346C87.7462 35.0697 87.6281 35.126 87.5208 35.2032C87.4206 35.2735 87.3383 35.3649 87.2739 35.4773C87.2094 35.5827 87.1772 35.7092 87.1772 35.8567V39.4932H85.8031Z" fill="#E57820"/>
<path d="M94.165 39.6197C93.6282 39.6197 93.1773 39.5318 92.8123 39.3561C92.4473 39.1734 92.1252 38.924 91.8461 38.6078L92.6834 37.8067C92.891 38.0386 93.1164 38.2213 93.3598 38.3548C93.6103 38.4883 93.8966 38.5551 94.2186 38.5551C94.5479 38.5551 94.784 38.4989 94.9272 38.3864C95.0775 38.274 95.1526 38.1194 95.1526 37.9227C95.1526 37.761 95.099 37.6346 94.9916 37.5432C94.8914 37.4448 94.716 37.3781 94.4656 37.3429L93.9073 37.2692C93.2989 37.1919 92.8337 37.0232 92.5117 36.7632C92.1968 36.4962 92.0393 36.1097 92.0393 35.6038C92.0393 35.3368 92.0894 35.0978 92.1896 34.887C92.2898 34.6692 92.4329 34.4865 92.619 34.3389C92.8051 34.1843 93.027 34.0684 93.2846 33.9911C93.5494 33.9068 93.8429 33.8646 94.165 33.8646C94.4369 33.8646 94.6767 33.8857 94.8842 33.9279C95.099 33.963 95.2922 34.0192 95.464 34.0965C95.6357 34.1668 95.7932 34.2581 95.9363 34.3706C96.0795 34.476 96.219 34.5954 96.355 34.7289L95.5498 35.5195C95.3852 35.3508 95.1884 35.2103 94.9594 35.0978C94.7304 34.9854 94.4799 34.9292 94.2079 34.9292C93.9073 34.9292 93.689 34.9819 93.553 35.0873C93.4242 35.1927 93.3598 35.3297 93.3598 35.4984C93.3598 35.6811 93.4135 35.8216 93.5208 35.92C93.6353 36.0113 93.825 36.0781 94.0898 36.1203L94.6588 36.194C95.8683 36.3627 96.4731 36.9038 96.4731 37.8173C96.4731 38.0843 96.4159 38.3302 96.3013 38.5551C96.194 38.7729 96.0401 38.9626 95.8397 39.1243C95.6393 39.2788 95.396 39.4018 95.1097 39.4932C94.8306 39.5775 94.5156 39.6197 94.165 39.6197Z" fill="#E57820"/>
<path d="M99.5672 39.4932C99.0949 39.4932 98.7334 39.3737 98.4829 39.1348C98.2396 38.8889 98.1179 38.541 98.1179 38.0913V35.0662H97.2913V33.9911H97.7207C97.9283 33.9911 98.0678 33.9454 98.1394 33.8541C98.2181 33.7557 98.2575 33.6117 98.2575 33.4219V32.4838H99.4921V33.9911H100.641V35.0662H99.4921V38.4181H100.555V39.4932H99.5672Z" fill="#E57820"/>
<path d="M102.047 39.4932V33.9911H103.422V35.1295H103.475C103.511 34.9819 103.565 34.8414 103.636 34.7079C103.715 34.5673 103.815 34.4443 103.937 34.3389C104.059 34.2335 104.202 34.1492 104.366 34.086C104.538 34.0227 104.735 33.9911 104.957 33.9911H105.257V35.2665H104.828C104.363 35.2665 104.012 35.3332 103.776 35.4668C103.54 35.6003 103.422 35.8181 103.422 36.1203V39.4932H102.047Z" fill="#E57820"/>
<path d="M109.826 38.5762H109.773C109.722 38.7167 109.654 38.8502 109.569 38.9767C109.49 39.0962 109.386 39.2051 109.257 39.3034C109.136 39.4018 108.985 39.4791 108.806 39.5353C108.635 39.5915 108.434 39.6197 108.205 39.6197C107.625 39.6197 107.182 39.4334 106.874 39.061C106.566 38.6886 106.412 38.1581 106.412 37.4694V33.9911H107.786V37.3324C107.786 37.7119 107.862 38.0035 108.012 38.2072C108.162 38.404 108.402 38.5024 108.731 38.5024C108.867 38.5024 109 38.4848 109.128 38.4497C109.264 38.4145 109.382 38.3618 109.483 38.2916C109.583 38.2143 109.665 38.1229 109.73 38.0175C109.794 37.9051 109.826 37.7751 109.826 37.6275V33.9911H111.2V39.4932H109.826V38.5762Z" fill="#E57820"/>
<path d="M115.214 39.6197C114.799 39.6197 114.431 39.5529 114.109 39.4194C113.786 39.2859 113.515 39.0926 113.293 38.8397C113.078 38.5867 112.913 38.2845 112.799 37.9332C112.684 37.5748 112.627 37.1743 112.627 36.7316C112.627 36.2889 112.684 35.8919 112.799 35.5405C112.913 35.1892 113.078 34.8906 113.293 34.6446C113.515 34.3916 113.786 34.1984 114.109 34.0649C114.431 33.9314 114.799 33.8646 115.214 33.8646C115.78 33.8646 116.245 33.9876 116.61 34.2335C116.982 34.4795 117.251 34.8203 117.415 35.2559L116.288 35.7513C116.223 35.5195 116.102 35.3297 115.923 35.1822C115.751 35.0276 115.515 34.9503 115.214 34.9503C114.828 34.9503 114.538 35.0697 114.345 35.3087C114.159 35.5476 114.066 35.8603 114.066 36.2467V37.2481C114.066 37.6346 114.159 37.9473 114.345 38.1862C114.538 38.4181 114.828 38.534 115.214 38.534C115.544 38.534 115.798 38.4532 115.977 38.2916C116.155 38.1229 116.295 37.9156 116.395 37.6697L117.447 38.1651C117.261 38.6499 116.979 39.0153 116.599 39.2613C116.22 39.5002 115.758 39.6197 115.214 39.6197Z" fill="#E57820"/>
<path d="M120.472 39.4932C119.999 39.4932 119.638 39.3737 119.387 39.1348C119.144 38.8889 119.022 38.541 119.022 38.0913V35.0662H118.196V33.9911H118.625C118.833 33.9911 118.972 33.9454 119.044 33.8541C119.122 33.7557 119.162 33.6117 119.162 33.4219V32.4838H120.396V33.9911H121.545V35.0662H120.396V38.4181H121.459V39.4932H120.472Z" fill="#E57820"/>
<path d="M125.132 39.6197C124.731 39.6197 124.37 39.5529 124.048 39.4194C123.733 39.2859 123.461 39.0926 123.232 38.8397C123.01 38.5867 122.838 38.2845 122.717 37.9332C122.595 37.5748 122.534 37.1743 122.534 36.7316C122.534 36.2889 122.595 35.8919 122.717 35.5405C122.838 35.1892 123.01 34.8906 123.232 34.6446C123.461 34.3916 123.733 34.1984 124.048 34.0649C124.37 33.9314 124.731 33.8646 125.132 33.8646C125.533 33.8646 125.894 33.9314 126.216 34.0649C126.538 34.1984 126.81 34.3916 127.032 34.6446C127.261 34.8906 127.437 35.1892 127.558 35.5405C127.68 35.8919 127.741 36.2889 127.741 36.7316C127.741 37.1743 127.68 37.5748 127.558 37.9332C127.437 38.2845 127.261 38.5867 127.032 38.8397C126.81 39.0926 126.538 39.2859 126.216 39.4194C125.894 39.5529 125.533 39.6197 125.132 39.6197ZM125.132 38.534C125.497 38.534 125.783 38.4251 125.991 38.2072C126.198 37.9894 126.302 37.6697 126.302 37.2481V36.2257C126.302 35.8111 126.198 35.4949 125.991 35.277C125.783 35.0592 125.497 34.9503 125.132 34.9503C124.774 34.9503 124.491 35.0592 124.284 35.277C124.076 35.4949 123.973 35.8111 123.973 36.2257V37.2481C123.973 37.6697 124.076 37.9894 124.284 38.2072C124.491 38.4251 124.774 38.534 125.132 38.534Z" fill="#E57820"/>
<path d="M129.174 39.4932V33.9911H130.548V35.1295H130.602C130.637 34.9819 130.691 34.8414 130.763 34.7079C130.841 34.5673 130.942 34.4443 131.063 34.3389C131.185 34.2335 131.328 34.1492 131.493 34.086C131.664 34.0227 131.861 33.9911 132.083 33.9911H132.384V35.2665H131.954C131.489 35.2665 131.138 35.3332 130.902 35.4668C130.666 35.6003 130.548 35.8181 130.548 36.1203V39.4932H129.174Z" fill="#E57820"/>
<path d="M135.816 39.6197C135.401 39.6197 135.029 39.5529 134.699 39.4194C134.377 39.2789 134.102 39.0856 133.873 38.8397C133.651 38.5867 133.479 38.2845 133.357 37.9332C133.236 37.5748 133.175 37.1743 133.175 36.7316C133.175 36.2959 133.232 35.9024 133.347 35.5511C133.468 35.1997 133.64 34.9011 133.862 34.6551C134.084 34.4022 134.356 34.2089 134.678 34.0754C135 33.9349 135.365 33.8646 135.773 33.8646C136.209 33.8646 136.589 33.9384 136.911 34.086C137.233 34.2335 137.498 34.4338 137.705 34.6868C137.913 34.9397 138.067 35.2349 138.167 35.5722C138.274 35.9024 138.328 36.2573 138.328 36.6367V37.0794H134.603V37.2165C134.603 37.617 134.717 37.9402 134.946 38.1862C135.175 38.4251 135.515 38.5445 135.966 38.5445C136.31 38.5445 136.589 38.4743 136.804 38.3337C137.025 38.1932 137.222 38.014 137.394 37.7962L138.135 38.6078C137.906 38.924 137.591 39.1734 137.19 39.3561C136.796 39.5318 136.338 39.6197 135.816 39.6197ZM135.794 34.8765C135.429 34.8765 135.139 34.996 134.925 35.2349C134.71 35.4738 134.603 35.783 134.603 36.1624V36.2467H136.9V36.1519C136.9 35.7724 136.804 35.4668 136.61 35.2349C136.424 34.996 136.152 34.8765 135.794 34.8765Z" fill="#E57820"/>
<path d="M141.587 39.6197C141.051 39.6197 140.6 39.5318 140.235 39.3561C139.87 39.1734 139.548 38.924 139.269 38.6078L140.106 37.8067C140.314 38.0386 140.539 38.2213 140.782 38.3548C141.033 38.4883 141.319 38.5551 141.641 38.5551C141.97 38.5551 142.207 38.4989 142.35 38.3864C142.5 38.274 142.575 38.1194 142.575 37.9227C142.575 37.761 142.521 37.6346 142.414 37.5432C142.314 37.4448 142.139 37.3781 141.888 37.3429L141.33 37.2692C140.721 37.1919 140.256 37.0232 139.934 36.7632C139.619 36.4962 139.462 36.1097 139.462 35.6038C139.462 35.3368 139.512 35.0978 139.612 34.887C139.712 34.6692 139.855 34.4865 140.042 34.3389C140.228 34.1843 140.45 34.0684 140.707 33.9911C140.972 33.9068 141.265 33.8646 141.587 33.8646C141.859 33.8646 142.099 33.8857 142.307 33.9279C142.521 33.963 142.715 34.0192 142.886 34.0965C143.058 34.1668 143.216 34.2581 143.359 34.3706C143.502 34.476 143.642 34.5954 143.778 34.7289L142.972 35.5195C142.808 35.3508 142.611 35.2103 142.382 35.0978C142.153 34.9854 141.902 34.9292 141.63 34.9292C141.33 34.9292 141.112 34.9819 140.976 35.0873C140.847 35.1927 140.782 35.3297 140.782 35.4984C140.782 35.6811 140.836 35.8216 140.943 35.92C141.058 36.0113 141.248 36.0781 141.512 36.1203L142.081 36.194C143.291 36.3627 143.896 36.9038 143.896 37.8173C143.896 38.0843 143.838 38.3302 143.724 38.5551C143.617 38.7729 143.463 38.9626 143.262 39.1243C143.062 39.2788 142.819 39.4018 142.532 39.4932C142.253 39.5775 141.938 39.6197 141.587 39.6197Z" fill="#E57820"/>
</svg>
