<svg width="73" height="74" viewBox="0 0 73 74" fill="none" xmlns="http://www.w3.org/2000/svg">
<path d="M15.7909 12.5487L21.5716 15.3426V12.5487H24.0701V33.2423L29.8018 35.2785V7.00833H15.7909V12.5487Z" fill="#F0F6FA"/>
<path d="M33.1821 36.5097V7.00833H38.7668V36.5097L36.0234 37.5515L33.1821 36.5097Z" fill="#F0F6FA"/>
<path d="M50.4263 15.3426L56.2071 12.5487V7.00833H42.1961V35.2785L47.9279 33.2423V12.5487H50.4263V15.3426Z" fill="#F0F6FA"/>
<path d="M15.8399 4.59331L14.4192 0H57.6768L56.2561 4.59331H15.8399Z" fill="#F0F6FA"/>
<path d="M3.59793 61.2991H0V44.761H7.83497C8.59242 44.761 9.27887 44.8874 9.89431 45.1401C10.5097 45.3928 11.0305 45.7561 11.4566 46.23C11.8984 46.6881 12.2377 47.2409 12.4744 47.8885C12.7111 48.5362 12.8295 49.2549 12.8295 50.0446C12.8295 51.1661 12.577 52.1455 12.072 52.9826C11.5828 53.8198 10.8332 54.4279 9.82329 54.807L13.0662 61.2991H9.06583L6.17802 55.2335H3.59793V61.2991ZM7.38522 52.2008C7.92176 52.2008 8.33994 52.0665 8.63977 51.798C8.95537 51.5136 9.11318 51.103 9.11318 50.5659V49.5234C9.11318 48.9863 8.95537 48.5835 8.63977 48.315C8.33994 48.0307 7.92176 47.8885 7.38522 47.8885H3.59793V52.2008H7.38522Z" fill="#F0F6FA"/>
<path d="M22.625 59.214H22.5067C22.3962 59.5299 22.2463 59.8301 22.0569 60.1144C21.8833 60.3987 21.6545 60.6514 21.3705 60.8726C21.0864 61.0937 20.7471 61.2675 20.3526 61.3938C19.9739 61.5202 19.5321 61.5834 19.0271 61.5834C17.7489 61.5834 16.7784 61.1648 16.1156 60.3276C15.4686 59.4747 15.1451 58.2584 15.1451 56.6788V48.86H18.6484V56.3708C18.6484 57.129 18.7825 57.7134 19.0508 58.1241C19.319 58.5348 19.7767 58.7402 20.4237 58.7402C20.6919 58.7402 20.9602 58.7007 21.2285 58.6217C21.4967 58.5427 21.7334 58.4321 21.9386 58.29C22.1437 58.132 22.3094 57.9425 22.4356 57.7213C22.5619 57.5002 22.625 57.2396 22.625 56.9395V48.86H26.1283V61.2991H22.625V59.214Z" fill="#F0F6FA"/>
<path d="M28.9144 61.2991V48.86H32.4176V50.9687H32.5596C32.7806 50.3053 33.1593 49.7445 33.6958 49.2864C34.2324 48.8126 34.9661 48.5756 35.8972 48.5756C36.7493 48.5756 37.4752 48.7889 38.0749 49.2154C38.6745 49.6419 39.1085 50.2658 39.3768 51.0872H39.4478C39.5582 50.7397 39.7239 50.4158 39.9449 50.1157C40.1816 49.7998 40.4656 49.5313 40.797 49.3101C41.1284 49.089 41.4992 48.9152 41.9095 48.7889C42.3198 48.6467 42.7617 48.5756 43.2351 48.5756C44.4344 48.5756 45.3496 49.0021 45.9809 49.8551C46.6279 50.7081 46.9514 51.9243 46.9514 53.5039V61.2991H43.4481V53.7882C43.4481 52.2086 42.88 51.4189 41.7438 51.4189C41.2231 51.4189 40.7497 51.5689 40.3236 51.869C39.8975 52.1692 39.6845 52.6272 39.6845 53.2433V61.2991H36.1812V53.7882C36.1812 52.2086 35.6131 51.4189 34.477 51.4189C34.2245 51.4189 33.972 51.4584 33.7195 51.5373C33.4828 51.6005 33.2619 51.7111 33.0567 51.869C32.8674 52.027 32.7095 52.2244 32.5833 52.4614C32.4728 52.6825 32.4176 52.9431 32.4176 53.2433V61.2991H28.9144Z" fill="#F0F6FA"/>
<path d="M54.6101 61.5834C53.679 61.5834 52.8506 61.4333 52.1247 61.1332C51.3988 60.8173 50.7912 60.3829 50.302 59.8301C49.8128 59.2614 49.442 58.5743 49.1895 57.7687C48.937 56.9632 48.8108 56.0628 48.8108 55.0677C48.8108 54.0725 48.937 53.1801 49.1895 52.3903C49.442 51.5847 49.8128 50.8976 50.302 50.329C50.7912 49.7603 51.3988 49.3259 52.1247 49.0258C52.8506 48.7257 53.679 48.5756 54.6101 48.5756C55.8725 48.5756 56.9219 48.86 57.7583 49.4286C58.6104 49.9973 59.218 50.7949 59.5809 51.8217L56.7404 53.0537C56.63 52.5798 56.4012 52.1771 56.054 51.8453C55.7068 51.5136 55.2255 51.3478 54.6101 51.3478C53.9 51.3478 53.3634 51.5847 53.0005 52.0586C52.6375 52.5167 52.4561 53.1406 52.4561 53.9304V56.2523C52.4561 57.0421 52.6375 57.6661 53.0005 58.1241C53.3634 58.5822 53.9 58.8112 54.6101 58.8112C55.2413 58.8112 55.7384 58.6454 56.1013 58.3137C56.4801 57.9662 56.7562 57.516 56.9298 56.9631L59.6519 58.1478C59.2416 59.3325 58.6025 60.2013 57.7346 60.7541C56.8825 61.307 55.841 61.5834 54.6101 61.5834Z" fill="#F0F6FA"/>
<path d="M66.273 61.5834C65.3578 61.5834 64.5372 61.4333 63.8113 61.1332C63.1012 60.8331 62.4936 60.3987 61.9886 59.8301C61.4995 59.2614 61.1207 58.5743 60.8525 57.7687C60.5842 56.9632 60.4501 56.0628 60.4501 55.0677C60.4501 54.0725 60.5842 53.1722 60.8525 52.3666C61.1207 51.561 61.4995 50.8818 61.9886 50.329C62.4936 49.7603 63.1012 49.3259 63.8113 49.0258C64.5372 48.7257 65.3578 48.5756 66.273 48.5756C67.1883 48.5756 68.001 48.7257 68.7111 49.0258C69.437 49.3259 70.0445 49.7603 70.5337 50.329C71.0387 50.8818 71.4253 51.561 71.6936 52.3666C71.9619 53.1722 72.096 54.0725 72.096 55.0677C72.096 56.0628 71.9619 56.9632 71.6936 57.7687C71.4253 58.5743 71.0387 59.2614 70.5337 59.8301C70.0445 60.3987 69.437 60.8331 68.7111 61.1332C68.001 61.4333 67.1883 61.5834 66.273 61.5834ZM66.273 58.8112C66.9674 58.8112 67.5039 58.598 67.8826 58.1715C68.2614 57.745 68.4507 57.1369 68.4507 56.3471V53.8119C68.4507 53.0221 68.2614 52.414 67.8826 51.9875C67.5039 51.561 66.9674 51.3478 66.273 51.3478C65.5787 51.3478 65.0422 51.561 64.6634 51.9875C64.2847 52.414 64.0953 53.0221 64.0953 53.8119V56.3471C64.0953 57.1369 64.2847 57.745 64.6634 58.1715C65.0422 58.598 65.5787 58.8112 66.273 58.8112Z" fill="#F0F6FA"/>
<path d="M3.43174 73.9999C2.9379 73.9999 2.49058 73.9226 2.08979 73.768C1.69615 73.6064 1.35619 73.3675 1.0699 73.0513C0.790777 72.7351 0.576064 72.3451 0.425766 71.8813C0.275467 71.4105 0.200317 70.8659 0.200317 70.2475C0.200317 69.6292 0.275467 69.0811 0.425766 68.6032C0.576064 68.1184 0.790777 67.7143 1.0699 67.3911C1.35619 67.0608 1.69615 66.8114 2.08979 66.6427C2.49058 66.4741 2.9379 66.3898 3.43174 66.3898C4.10451 66.3898 4.66276 66.5303 5.1065 66.8114C5.55024 67.0925 5.90451 67.5176 6.16933 68.0868L4.9562 68.7192C4.84884 68.3889 4.6735 68.1254 4.43015 67.9287C4.18681 67.7249 3.85401 67.623 3.43174 67.623C2.90212 67.623 2.47985 67.7987 2.16494 68.15C1.85718 68.5014 1.70331 68.9932 1.70331 69.6257V70.7851C1.70331 71.4245 1.85718 71.9164 2.16494 72.2607C2.47985 72.598 2.90212 72.7667 3.43174 72.7667C3.85401 72.7667 4.19755 72.6543 4.46236 72.4294C4.73433 72.2045 4.93115 71.927 5.05282 71.5967L6.20153 72.2607C5.92956 72.8088 5.56813 73.2375 5.11724 73.5467C4.66634 73.8488 4.10451 73.9999 3.43174 73.9999Z" fill="#F0F6FA"/>
<path d="M9.76148 73.9999C9.36069 73.9999 8.99925 73.9331 8.67719 73.7996C8.36227 73.6661 8.0903 73.4729 7.86128 73.2199C7.63941 72.9669 7.46764 72.6648 7.34597 72.3134C7.2243 71.9551 7.16346 71.5545 7.16346 71.1118C7.16346 70.6692 7.2243 70.2721 7.34597 69.9208C7.46764 69.5694 7.63941 69.2708 7.86128 69.0249C8.0903 68.7719 8.36227 68.5786 8.67719 68.4451C8.99925 68.3116 9.36069 68.2449 9.76148 68.2449C10.1623 68.2449 10.5237 68.3116 10.8458 68.4451C11.1679 68.5786 11.4398 68.7719 11.6617 69.0249C11.8907 69.2708 12.0661 69.5694 12.1877 69.9208C12.3094 70.2721 12.3702 70.6692 12.3702 71.1118C12.3702 71.5545 12.3094 71.9551 12.1877 72.3134C12.0661 72.6648 11.8907 72.9669 11.6617 73.2199C11.4398 73.4729 11.1679 73.6661 10.8458 73.7996C10.5237 73.9331 10.1623 73.9999 9.76148 73.9999ZM9.76148 72.9142C10.1265 72.9142 10.4128 72.8053 10.6203 72.5875C10.8279 72.3697 10.9317 72.0499 10.9317 71.6283V70.6059C10.9317 70.1913 10.8279 69.8751 10.6203 69.6573C10.4128 69.4394 10.1265 69.3305 9.76148 69.3305C9.40363 69.3305 9.12092 69.4394 8.91337 69.6573C8.70581 69.8751 8.60204 70.1913 8.60204 70.6059V71.6283C8.60204 72.0499 8.70581 72.3697 8.91337 72.5875C9.12092 72.8053 9.40363 72.9142 9.76148 72.9142Z" fill="#F0F6FA"/>
<path d="M13.8032 73.8734V68.3714H15.1774V69.2884H15.231C15.3455 68.9932 15.5245 68.7473 15.7678 68.5505C16.0183 68.3468 16.3619 68.2449 16.7984 68.2449C17.3782 68.2449 17.8219 68.4311 18.1297 68.8035C18.4374 69.1759 18.5913 69.7065 18.5913 70.3951V73.8734H17.2171V70.5321C17.2171 70.1386 17.1456 69.8435 17.0024 69.6467C16.8593 69.45 16.6231 69.3516 16.2939 69.3516C16.1507 69.3516 16.0112 69.3727 15.8752 69.4149C15.7463 69.45 15.6283 69.5062 15.5209 69.5835C15.4207 69.6538 15.3384 69.7451 15.274 69.8575C15.2096 69.9629 15.1774 70.0894 15.1774 70.237V73.8734H13.8032Z" fill="#F0F6FA"/>
<path d="M22.1651 73.9999C21.6283 73.9999 21.1774 73.9121 20.8124 73.7364C20.4474 73.5537 20.1253 73.3042 19.8462 72.988L20.6836 72.187C20.8911 72.4189 21.1166 72.6016 21.3599 72.7351C21.6104 72.8686 21.8967 72.9353 22.2188 72.9353C22.548 72.9353 22.7842 72.8791 22.9273 72.7667C23.0776 72.6543 23.1528 72.4997 23.1528 72.3029C23.1528 72.1413 23.0991 72.0148 22.9917 71.9235C22.8915 71.8251 22.7162 71.7583 22.4657 71.7232L21.9074 71.6494C21.2991 71.5721 20.8339 71.4035 20.5118 71.1435C20.1969 70.8764 20.0394 70.49 20.0394 69.984C20.0394 69.717 20.0895 69.4781 20.1897 69.2673C20.2899 69.0495 20.4331 68.8668 20.6191 68.7192C20.8052 68.5646 21.0271 68.4487 21.2848 68.3714C21.5496 68.287 21.843 68.2449 22.1651 68.2449C22.437 68.2449 22.6768 68.266 22.8844 68.3081C23.0991 68.3432 23.2923 68.3995 23.4641 68.4768C23.6359 68.547 23.7933 68.6384 23.9365 68.7508C24.0796 68.8562 24.2192 68.9757 24.3551 69.1092L23.55 69.8997C23.3854 69.7311 23.1885 69.5905 22.9595 69.4781C22.7305 69.3657 22.48 69.3094 22.208 69.3094C21.9074 69.3094 21.6891 69.3621 21.5531 69.4676C21.4243 69.573 21.3599 69.71 21.3599 69.8786C21.3599 70.0613 21.4136 70.2019 21.5209 70.3002C21.6355 70.3916 21.8251 70.4583 22.0899 70.5005L22.6589 70.5743C23.8685 70.7429 24.4732 71.284 24.4732 72.1975C24.4732 72.4645 24.416 72.7105 24.3015 72.9353C24.1941 73.1532 24.0402 73.3429 23.8398 73.5045C23.6394 73.6591 23.3961 73.7821 23.1098 73.8734C22.8307 73.9577 22.5158 73.9999 22.1651 73.9999Z" fill="#F0F6FA"/>
<path d="M27.5674 73.8734C27.095 73.8734 26.7336 73.754 26.4831 73.515C26.2397 73.2691 26.118 72.9213 26.118 72.4716V69.4465H25.2914V68.3714H25.7208C25.9284 68.3714 26.068 68.3257 26.1395 68.2343C26.2183 68.136 26.2576 67.9919 26.2576 67.8022V66.8641H27.4922V68.3714H28.6409V69.4465H27.4922V72.7983H28.555V73.8734H27.5674Z" fill="#F0F6FA"/>
<path d="M30.0475 73.8734V68.3714H31.4217V69.5097H31.4754C31.5112 69.3621 31.5648 69.2216 31.6364 69.0881C31.7151 68.9476 31.8153 68.8246 31.937 68.7192C32.0587 68.6138 32.2018 68.5295 32.3664 68.4662C32.5382 68.403 32.735 68.3714 32.9569 68.3714H33.2575V69.6467H32.8281C32.3629 69.6467 32.0122 69.7135 31.776 69.847C31.5398 69.9805 31.4217 70.1984 31.4217 70.5005V73.8734H30.0475Z" fill="#F0F6FA"/>
<path d="M37.8263 72.9564H37.7727C37.7226 73.0969 37.6546 73.2305 37.5687 73.3569C37.49 73.4764 37.3862 73.5853 37.2574 73.6837C37.1357 73.7821 36.9854 73.8594 36.8065 73.9156C36.6347 73.9718 36.4343 73.9999 36.2053 73.9999C35.6255 73.9999 35.1818 73.8137 34.874 73.4413C34.5663 73.0688 34.4124 72.5383 34.4124 71.8497V68.3714H35.7866V71.7126C35.7866 72.0921 35.8617 72.3837 36.012 72.5875C36.1623 72.7842 36.4021 72.8826 36.7313 72.8826C36.8673 72.8826 36.9997 72.8651 37.1285 72.8299C37.2645 72.7948 37.3826 72.7421 37.4828 72.6718C37.583 72.5945 37.6653 72.5032 37.7297 72.3978C37.7941 72.2853 37.8263 72.1553 37.8263 72.0078V68.3714H39.2005V73.8734H37.8263V72.9564Z" fill="#F0F6FA"/>
<path d="M43.2145 73.9999C42.7993 73.9999 42.4308 73.9331 42.1087 73.7996C41.7866 73.6661 41.5146 73.4729 41.2928 73.2199C41.0781 72.9669 40.9135 72.6648 40.7989 72.3134C40.6844 71.9551 40.6272 71.5545 40.6272 71.1118C40.6272 70.6692 40.6844 70.2721 40.7989 69.9208C40.9135 69.5694 41.0781 69.2708 41.2928 69.0249C41.5146 68.7719 41.7866 68.5786 42.1087 68.4451C42.4308 68.3116 42.7993 68.2449 43.2145 68.2449C43.7799 68.2449 44.2451 68.3678 44.6101 68.6138C44.9823 68.8597 45.2506 69.2005 45.4153 69.6362L44.288 70.1316C44.2236 69.8997 44.1019 69.71 43.923 69.5624C43.7512 69.4078 43.5151 69.3305 43.2145 69.3305C42.828 69.3305 42.5381 69.45 42.3449 69.6889C42.1588 69.9278 42.0657 70.2405 42.0657 70.627V71.6283C42.0657 72.0148 42.1588 72.3275 42.3449 72.5664C42.5381 72.7983 42.828 72.9142 43.2145 72.9142C43.5437 72.9142 43.7978 72.8334 43.9767 72.6718C44.1556 72.5032 44.2952 72.2959 44.3954 72.0499L45.4475 72.5453C45.2614 73.0302 44.9787 73.3956 44.5993 73.6415C44.22 73.8804 43.7584 73.9999 43.2145 73.9999Z" fill="#F0F6FA"/>
<path d="M48.4716 73.8734C47.9993 73.8734 47.6378 73.754 47.3873 73.515C47.144 73.2691 47.0223 72.9213 47.0223 72.4716V69.4465H46.1957V68.3714H46.6251C46.8327 68.3714 46.9722 68.3257 47.0438 68.2343C47.1225 68.136 47.1619 67.9919 47.1619 67.8022V66.8641H48.3965V68.3714H49.5452V69.4465H48.3965V72.7983H49.4593V73.8734H48.4716Z" fill="#F0F6FA"/>
<path d="M53.1322 73.9999C52.7314 73.9999 52.3699 73.9331 52.0479 73.7996C51.7329 73.6661 51.461 73.4729 51.232 73.2199C51.0101 72.9669 50.8383 72.6648 50.7166 72.3134C50.595 71.9551 50.5341 71.5545 50.5341 71.1118C50.5341 70.6692 50.595 70.2721 50.7166 69.9208C50.8383 69.5694 51.0101 69.2708 51.232 69.0249C51.461 68.7719 51.7329 68.5786 52.0479 68.4451C52.3699 68.3116 52.7314 68.2449 53.1322 68.2449C53.533 68.2449 53.8944 68.3116 54.2165 68.4451C54.5385 68.5786 54.8105 68.7719 55.0324 69.0249C55.2614 69.2708 55.4367 69.5694 55.5584 69.9208C55.6801 70.2721 55.7409 70.6692 55.7409 71.1118C55.7409 71.5545 55.6801 71.9551 55.5584 72.3134C55.4367 72.6648 55.2614 72.9669 55.0324 73.2199C54.8105 73.4729 54.5385 73.6661 54.2165 73.7996C53.8944 73.9331 53.533 73.9999 53.1322 73.9999ZM53.1322 72.9142C53.4972 72.9142 53.7835 72.8053 53.991 72.5875C54.1986 72.3697 54.3023 72.0499 54.3023 71.6283V70.6059C54.3023 70.1913 54.1986 69.8751 53.991 69.6573C53.7835 69.4394 53.4972 69.3305 53.1322 69.3305C52.7743 69.3305 52.4916 69.4394 52.284 69.6573C52.0765 69.8751 51.9727 70.1913 51.9727 70.6059V71.6283C51.9727 72.0499 52.0765 72.3697 52.284 72.5875C52.4916 72.8053 52.7743 72.9142 53.1322 72.9142Z" fill="#F0F6FA"/>
<path d="M57.1739 73.8734V68.3714H58.548V69.5097H58.6017C58.6375 69.3621 58.6912 69.2216 58.7627 69.0881C58.8415 68.9476 58.9417 68.8246 59.0633 68.7192C59.185 68.6138 59.3282 68.5295 59.4928 68.4662C59.6645 68.403 59.8614 68.3714 60.0832 68.3714H60.3838V69.6467H59.9544C59.4892 69.6467 59.1385 69.7135 58.9023 69.847C58.6661 69.9805 58.548 70.1984 58.548 70.5005V73.8734H57.1739Z" fill="#F0F6FA"/>
<path d="M63.816 73.9999C63.4008 73.9999 63.0287 73.9331 62.6994 73.7996C62.3774 73.6591 62.1018 73.4659 61.8728 73.2199C61.6509 72.9669 61.4792 72.6648 61.3575 72.3134C61.2358 71.9551 61.175 71.5545 61.175 71.1118C61.175 70.6762 61.2323 70.2827 61.3468 69.9313C61.4684 69.58 61.6402 69.2813 61.8621 69.0354C62.0839 68.7824 62.3559 68.5892 62.678 68.4557C63 68.3151 63.3651 68.2449 63.773 68.2449C64.2096 68.2449 64.5889 68.3187 64.911 68.4662C65.2331 68.6138 65.4979 68.8141 65.7054 69.067C65.913 69.32 66.0669 69.6151 66.1671 69.9524C66.2744 70.2827 66.3281 70.6375 66.3281 71.017V71.4597H62.6028V71.5967C62.6028 71.9972 62.7173 72.3205 62.9464 72.5664C63.1754 72.8053 63.5154 72.9248 63.9663 72.9248C64.3098 72.9248 64.5889 72.8545 64.8036 72.714C65.0255 72.5734 65.2223 72.3943 65.3941 72.1764L66.1348 72.988C65.9058 73.3042 65.5909 73.5537 65.1901 73.7364C64.7965 73.9121 64.3384 73.9999 63.816 73.9999ZM63.7945 69.2567C63.4295 69.2567 63.1396 69.3762 62.9249 69.6151C62.7102 69.854 62.6028 70.1632 62.6028 70.5427V70.627H64.9003V70.5321C64.9003 70.1527 64.8036 69.847 64.6104 69.6151C64.4243 69.3762 64.1523 69.2567 63.7945 69.2567Z" fill="#F0F6FA"/>
<path d="M69.5876 73.9999C69.0508 73.9999 68.5999 73.9121 68.2349 73.7364C67.8699 73.5537 67.5478 73.3042 67.2687 72.988L68.1061 72.187C68.3137 72.4189 68.5391 72.6016 68.7824 72.7351C69.0329 72.8686 69.3192 72.9353 69.6413 72.9353C69.9705 72.9353 70.2067 72.8791 70.3498 72.7667C70.5001 72.6543 70.5753 72.4997 70.5753 72.3029C70.5753 72.1413 70.5216 72.0148 70.4143 71.9235C70.3141 71.8251 70.1387 71.7583 69.8882 71.7232L69.33 71.6494C68.7216 71.5721 68.2564 71.4035 67.9343 71.1435C67.6194 70.8764 67.462 70.49 67.462 69.984C67.462 69.717 67.5121 69.4781 67.6123 69.2673C67.7125 69.0495 67.8556 68.8668 68.0417 68.7192C68.2278 68.5646 68.4496 68.4487 68.7073 68.3714C68.9721 68.287 69.2655 68.2449 69.5876 68.2449C69.8596 68.2449 70.0993 68.266 70.3069 68.3081C70.5216 68.3432 70.7149 68.3995 70.8866 68.4768C71.0584 68.547 71.2158 68.6384 71.359 68.7508C71.5021 68.8562 71.6417 68.9757 71.7777 69.1092L70.9725 69.8997C70.8079 69.7311 70.6111 69.5905 70.382 69.4781C70.153 69.3657 69.9025 69.3094 69.6306 69.3094C69.33 69.3094 69.1117 69.3621 68.9757 69.4676C68.8469 69.573 68.7824 69.71 68.7824 69.8786C68.7824 70.0613 68.8361 70.2019 68.9435 70.3002C69.058 70.3916 69.2477 70.4583 69.5125 70.5005L70.0815 70.5743C71.291 70.7429 71.8958 71.284 71.8958 72.1975C71.8958 72.4645 71.8385 72.7105 71.724 72.9353C71.6166 73.1532 71.4628 73.3429 71.2624 73.5045C71.062 73.6591 70.8186 73.7821 70.5323 73.8734C70.2532 73.9577 69.9383 73.9999 69.5876 73.9999Z" fill="#F0F6FA"/>
</svg>
